<svg width="22" height="24" viewBox="0 0 22 24" fill="none" xmlns="http://www.w3.org/2000/svg">
<path fill-rule="evenodd" clip-rule="evenodd" d="M8.98291 0.966152C9.46815 0.820589 9.9807 0.790477 10.4796 0.87822C10.9786 0.965962 11.4501 1.16913 11.8566 1.47151C12.263 1.77388 12.5932 2.16709 12.8207 2.61975C13.0482 3.0724 13.1667 3.57197 13.1667 4.07857V19.9212C13.1667 20.4278 13.0482 20.9274 12.8207 21.3801C12.5932 21.8327 12.263 22.2259 11.8566 22.5283C11.4501 22.8307 10.9786 23.0338 10.4796 23.1216C9.9807 23.2093 9.46815 23.1792 8.98291 23.0336L2.48291 21.0837C1.81352 20.8828 1.22669 20.4716 0.80947 19.911C0.392248 19.3503 0.166863 18.6701 0.166748 17.9712V6.02857C0.166863 5.32971 0.392248 4.6495 0.80947 4.08884C1.22669 3.52819 1.81352 3.11696 2.48291 2.91615L8.98291 0.966152ZM14.2501 3.33324C14.2501 3.04592 14.3642 2.77037 14.5674 2.5672C14.7705 2.36404 15.0461 2.2499 15.3334 2.2499H18.5834C19.4454 2.2499 20.272 2.59231 20.8815 3.2018C21.491 3.8113 21.8334 4.63795 21.8334 5.4999V6.58323C21.8334 6.87055 21.7193 7.1461 21.5161 7.34927C21.3129 7.55243 21.0374 7.66657 20.7501 7.66657C20.4628 7.66657 20.1872 7.55243 19.984 7.34927C19.7809 7.1461 19.6667 6.87055 19.6667 6.58323V5.4999C19.6667 5.21258 19.5526 4.93703 19.3494 4.73387C19.1463 4.53071 18.8707 4.41657 18.5834 4.41657H15.3334C15.0461 4.41657 14.7705 4.30243 14.5674 4.09927C14.3642 3.8961 14.2501 3.62055 14.2501 3.33324ZM20.7501 16.3332C21.0374 16.3332 21.3129 16.4474 21.5161 16.6505C21.7193 16.8537 21.8334 17.1292 21.8334 17.4166V18.4999C21.8334 19.3619 21.491 20.1885 20.8815 20.798C20.272 21.4075 19.4454 21.7499 18.5834 21.7499H15.3334C15.0461 21.7499 14.7705 21.6358 14.5674 21.4326C14.3642 21.2294 14.2501 20.9539 14.2501 20.6666C14.2501 20.3792 14.3642 20.1037 14.5674 19.9005C14.7705 19.6974 15.0461 19.5832 15.3334 19.5832H18.5834C18.8707 19.5832 19.1463 19.4691 19.3494 19.2659C19.5526 19.0628 19.6667 18.7872 19.6667 18.4999V17.4166C19.6667 17.1292 19.7809 16.8537 19.984 16.6505C20.1872 16.4474 20.4628 16.3332 20.7501 16.3332ZM7.75008 10.9166C7.46276 10.9166 7.18721 11.0307 6.98405 11.2339C6.78088 11.437 6.66675 11.7126 6.66675 11.9999C6.66675 12.2872 6.78088 12.5628 6.98405 12.7659C7.18721 12.9691 7.46276 13.0832 7.75008 13.0832H7.75116C8.03848 13.0832 8.31403 12.9691 8.5172 12.7659C8.72036 12.5628 8.8345 12.2872 8.8345 11.9999C8.8345 11.7126 8.72036 11.437 8.5172 11.2339C8.31403 11.0307 8.03848 10.9166 7.75116 10.9166H7.75008Z" fill="white"/>
<path d="M15.3335 11.9999H20.7502M20.7502 11.9999L18.5835 9.83325M20.7502 11.9999L18.5835 14.1666" stroke="white" stroke-width="2" stroke-linecap="round" stroke-linejoin="round"/>
</svg>
