<svg width="22" height="24" viewBox="0 0 22 24" fill="none" xmlns="http://www.w3.org/2000/svg">
<path fill-rule="evenodd" clip-rule="evenodd" d="M8.98279 0.966152C9.46803 0.820589 9.98058 0.790477 10.4795 0.87822C10.9785 0.965962 11.45 1.16913 11.8565 1.47151C12.2629 1.77388 12.5931 2.16709 12.8205 2.61975C13.048 3.0724 13.1665 3.57197 13.1666 4.07857V19.9212C13.1665 20.4278 13.048 20.9274 12.8205 21.3801C12.5931 21.8327 12.2629 22.2259 11.8565 22.5283C11.45 22.8307 10.9785 23.0338 10.4795 23.1216C9.98058 23.2093 9.46803 23.1792 8.98279 23.0336L2.48279 21.0837C1.8134 20.8828 1.22657 20.4716 0.809348 19.911C0.392126 19.3503 0.166741 18.6701 0.166626 17.9712V6.02857C0.166741 5.32971 0.392126 4.6495 0.809348 4.08884C1.22657 3.52819 1.8134 3.11696 2.48279 2.91615L8.98279 0.966152ZM14.25 3.33324C14.25 3.04592 14.3641 2.77037 14.5673 2.5672C14.7704 2.36404 15.046 2.2499 15.3333 2.2499H18.5833C19.4452 2.2499 20.2719 2.59231 20.8814 3.2018C21.4909 3.8113 21.8333 4.63795 21.8333 5.4999V6.58323C21.8333 6.87055 21.7192 7.1461 21.516 7.34927C21.3128 7.55243 21.0373 7.66657 20.75 7.66657C20.4626 7.66657 20.1871 7.55243 19.9839 7.34927C19.7808 7.1461 19.6666 6.87055 19.6666 6.58323V5.4999C19.6666 5.21258 19.5525 4.93703 19.3493 4.73387C19.1462 4.53071 18.8706 4.41657 18.5833 4.41657H15.3333C15.046 4.41657 14.7704 4.30243 14.5673 4.09927C14.3641 3.8961 14.25 3.62055 14.25 3.33324ZM20.75 16.3332C21.0373 16.3332 21.3128 16.4474 21.516 16.6505C21.7192 16.8537 21.8333 17.1292 21.8333 17.4166V18.4999C21.8333 19.3619 21.4909 20.1885 20.8814 20.798C20.2719 21.4075 19.4452 21.7499 18.5833 21.7499H15.3333C15.046 21.7499 14.7704 21.6358 14.5673 21.4326C14.3641 21.2294 14.25 20.9539 14.25 20.6666C14.25 20.3792 14.3641 20.1037 14.5673 19.9005C14.7704 19.6974 15.046 19.5832 15.3333 19.5832H18.5833C18.8706 19.5832 19.1462 19.4691 19.3493 19.2659C19.5525 19.0628 19.6666 18.7872 19.6666 18.4999V17.4166C19.6666 17.1292 19.7808 16.8537 19.9839 16.6505C20.1871 16.4474 20.4626 16.3332 20.75 16.3332ZM7.74996 10.9166C7.46264 10.9166 7.18709 11.0307 6.98393 11.2339C6.78076 11.437 6.66663 11.7126 6.66663 11.9999C6.66663 12.2872 6.78076 12.5628 6.98393 12.7659C7.18709 12.9691 7.46264 13.0832 7.74996 13.0832H7.75104C8.03836 13.0832 8.31391 12.9691 8.51707 12.7659C8.72024 12.5628 8.83438 12.2872 8.83438 11.9999C8.83438 11.7126 8.72024 11.437 8.51707 11.2339C8.31391 11.0307 8.03836 10.9166 7.75104 10.9166H7.74996Z" fill="white"/>
<path d="M15.3333 11.9999H20.7499M20.7499 11.9999L18.5833 9.83325M20.7499 11.9999L18.5833 14.1666" stroke="white" stroke-width="2" stroke-linecap="round" stroke-linejoin="round"/>
</svg>
