<svg width="18" height="20" viewBox="0 0 18 20" fill="none" xmlns="http://www.w3.org/2000/svg">
<path d="M16.3636 5.88863V13.18C15.7397 12.8626 15.0144 12.7355 14.3001 12.8184C13.5858 12.9012 12.9225 13.1894 12.4131 13.6382C11.9037 14.0869 11.5766 14.6713 11.4825 15.3005C11.3885 15.9298 11.5328 16.5687 11.893 17.1184C12.2533 17.668 12.8093 18.0976 13.4749 18.3405C14.1405 18.5833 14.8785 18.6259 15.5744 18.4616C16.2703 18.2974 16.8852 17.9354 17.3237 17.4319C17.7623 16.9283 18 16.3114 18 15.6767V1.15459C18.0002 0.969551 17.9499 0.787174 17.8533 0.622863C17.7567 0.458552 17.6167 0.317131 17.445 0.210543C17.2733 0.103955 17.075 0.0353293 16.8668 0.0104617C16.6587 -0.0144059 16.4468 0.00521461 16.2491 0.0676662L5.77637 3.36304C5.52248 3.44323 5.30291 3.59054 5.14768 3.78484C4.99244 3.97913 4.90911 4.21093 4.90909 4.44852V14.6201C4.28523 14.3028 3.55996 14.1757 2.84575 14.2585C2.13153 14.3413 1.46828 14.6293 0.958838 15.078C0.449397 15.5267 0.122234 16.1109 0.0280793 16.7401C-0.0660752 17.3692 0.0780404 18.0082 0.438079 18.5579C0.798117 19.1075 1.35396 19.5372 2.01942 19.7802C2.68487 20.0232 3.42276 20.0661 4.11865 19.902C4.81454 19.738 5.42956 19.3763 5.86833 18.873C6.3071 18.3697 6.54511 17.7529 6.54546 17.1183V8.97786L16.3636 5.89007V5.88863Z" fill="white"/>
</svg>
