<svg width="379" height="133" viewBox="0 0 379 133" fill="none" xmlns="http://www.w3.org/2000/svg">
<line x1="36.261" y1="111" x2="36.261" y2="21" stroke="white" stroke-width="8" stroke-linecap="round"/>
<line x1="133.043" y1="129" x2="133.043" y2="4" stroke="white" stroke-width="8" stroke-linecap="round"/>
<line x1="278.217" y1="107" x2="278.217" y2="27" stroke="white" stroke-width="8" stroke-linecap="round"/>
<line x1="197.565" y1="105" x2="197.565" y2="27" stroke="white" stroke-width="8" stroke-linecap="round"/>
<line x1="342.739" y1="83" x2="342.739" y2="51" stroke="white" stroke-width="8" stroke-linecap="round"/>
<line x1="52.3914" y1="98" x2="52.3914" y2="36" stroke="white" stroke-width="8" stroke-linecap="round"/>
<line x1="20.1304" y1="98" x2="20.1304" y2="36" stroke="white" stroke-width="8" stroke-linecap="round"/>
<line x1="116.913" y1="98" x2="116.913" y2="36" stroke="white" stroke-width="8" stroke-linecap="round"/>
<line x1="262.087" y1="87" x2="262.087" y2="47" stroke="white" stroke-width="8" stroke-linecap="round"/>
<line x1="181.435" y1="98" x2="181.435" y2="36" stroke="white" stroke-width="8" stroke-linecap="round"/>
<line x1="326.609" y1="98" x2="326.609" y2="36" stroke="white" stroke-width="8" stroke-linecap="round"/>
<line x1="68.5217" y1="83" x2="68.5217" y2="51" stroke="white" stroke-width="8" stroke-linecap="round"/>
<line x1="4" y1="83" x2="4" y2="51" stroke="white" stroke-width="8" stroke-linecap="round"/>
<line x1="213.696" y1="83" x2="213.696" y2="51" stroke="white" stroke-width="8" stroke-linecap="round"/>
<line x1="84.6521" y1="94" x2="84.6521" y2="40" stroke="white" stroke-width="8" stroke-linecap="round"/>
<line x1="229.826" y1="73" x2="229.826" y2="61" stroke="white" stroke-width="8" stroke-linecap="round"/>
<line x1="375" y1="73" x2="375" y2="61" stroke="white" stroke-width="8" stroke-linecap="round"/>
<line x1="149.174" y1="113" x2="149.174" y2="21" stroke="white" stroke-width="8" stroke-linecap="round"/>
<line x1="294.348" y1="87" x2="294.348" y2="47" stroke="white" stroke-width="8" stroke-linecap="round"/>
<line x1="100.783" y1="87" x2="100.783" y2="47" stroke="white" stroke-width="8" stroke-linecap="round"/>
<line x1="245.957" y1="78" x2="245.957" y2="56" stroke="white" stroke-width="8" stroke-linecap="round"/>
<line x1="165.304" y1="87" x2="165.304" y2="47" stroke="white" stroke-width="8" stroke-linecap="round"/>
<line x1="310.478" y1="78" x2="310.478" y2="56" stroke="white" stroke-width="8" stroke-linecap="round"/>
<line x1="359.945" y1="78" x2="359.945" y2="56" stroke="white" stroke-width="8" stroke-linecap="round"/>
</svg>
