<svg width="18" height="20" viewBox="0 0 18 20" fill="none" xmlns="http://www.w3.org/2000/svg">
<path d="M15 3H10.5V17H11.5C11.8978 17 12.2794 17.158 12.5607 17.4393C12.842 17.7206 13 18.1022 13 18.5C13 18.8978 12.842 19.2794 12.5607 19.5607C12.2794 19.842 11.8978 20 11.5 20H6.5C6.10218 20 5.72065 19.842 5.43934 19.5607C5.15804 19.2794 5 18.8978 5 18.5C5 18.1022 5.15804 17.7206 5.43934 17.4393C5.72065 17.158 6.10218 17 6.5 17H7.5V3H3V4.5C3 4.89782 2.84196 5.27935 2.56066 5.56066C2.27935 5.84196 1.89782 6 1.5 6C1.10218 6 0.720644 5.84196 0.43934 5.56066C0.158035 5.27935 0 4.89782 0 4.5V1.5C0 1.10218 0.158035 0.720644 0.43934 0.43934C0.720644 0.158035 1.10218 0 1.5 0H16.5C16.8978 0 17.2794 0.158035 17.5607 0.43934C17.842 0.720644 18 1.10218 18 1.5V4.5C18 4.89782 17.842 5.27935 17.5607 5.56066C17.2794 5.84196 16.8978 6 16.5 6C16.1022 6 15.7206 5.84196 15.4393 5.56066C15.158 5.27935 15 4.89782 15 4.5V3Z" fill="white"/>
</svg>
